<?xml version="1.0" encoding="utf-8"?>
<!-- Generator: Adobe Illustrator 23.1.0, SVG Export Plug-In . SVG Version: 6.00 Build 0)  -->
<svg version="1.1" id="图层_1" xmlns="http://www.w3.org/2000/svg" xmlns:xlink="http://www.w3.org/1999/xlink" x="0px" y="0px"
	 viewBox="0 0 130 40" style="enable-background:new 0 0 130 40;" xml:space="preserve">
<style type="text/css">
	.st0{fill:#B6B6B6;}
	.st1{fill:#FFFFFF;}
	.st2{fill-rule:evenodd;clip-rule:evenodd;fill:#C8102E;}
</style>
<g>
	<g>
		<g>
			<g>
				<path class="st0" d="M120.9,0.4H9.3c-0.4,0-0.7,0-1.1,0c-0.3,0-0.6,0-0.9,0C6.7,0.4,6,0.4,5.4,0.6C4.8,0.7,4.2,0.9,3.6,1.2
					C3,1.5,2.5,1.9,2,2.3c-0.5,0.5-0.8,1-1.1,1.6C0.6,4.4,0.4,5,0.3,5.7C0.2,6.3,0.1,7,0.1,7.6c0,0.3,0,0.6,0,0.9c0,0.3,0,0.7,0,1
					v20.6c0,0.4,0,0.7,0,1.1c0,0.3,0,0.6,0,0.9c0,0.6,0.1,1.3,0.2,1.9c0.1,0.6,0.3,1.3,0.6,1.8C1.2,36.5,1.6,37,2,37.4
					c0.5,0.5,1,0.8,1.6,1.1c0.6,0.3,1.2,0.5,1.8,0.6c0.6,0.1,1.3,0.2,1.9,0.2c0.3,0,0.6,0,0.9,0c0.4,0,0.7,0,1.1,0h111.6
					c0.3,0,0.7,0,1,0c0.3,0,0.6,0,0.9,0c0.6,0,1.3-0.1,1.9-0.2c0.6-0.1,1.2-0.3,1.8-0.6c0.6-0.3,1.1-0.7,1.6-1.1
					c0.5-0.5,0.8-1,1.1-1.6c0.3-0.6,0.5-1.2,0.6-1.8c0.1-0.6,0.2-1.3,0.2-1.9c0-0.3,0-0.6,0-0.9c0-0.3,0-0.7,0-1.1V9.6
					c0-0.4,0-0.7,0-1c0-0.3,0-0.6,0-0.9c0-0.6-0.1-1.3-0.2-1.9c-0.1-0.6-0.3-1.2-0.6-1.8c-0.3-0.6-0.7-1.1-1.1-1.6
					c-0.5-0.5-1-0.8-1.6-1.1c-0.6-0.3-1.2-0.5-1.8-0.6c-0.6-0.1-1.3-0.2-1.9-0.2c-0.3,0-0.6,0-0.9,0C121.6,0.4,121.2,0.4,120.9,0.4
					L120.9,0.4z"/>
				<path d="M8.2,38.5c-0.3,0-0.6,0-0.9,0c-0.5,0-1.2,0-1.8-0.2c-0.6-0.1-1.1-0.3-1.6-0.5c-0.5-0.3-0.9-0.6-1.3-1
					c-0.4-0.4-0.7-0.8-1-1.3c-0.2-0.5-0.4-1-0.5-1.6c-0.1-0.6-0.2-1.3-0.2-1.8c0-0.2,0-0.9,0-0.9V8.5c0,0,0-0.7,0-0.9
					c0-0.5,0-1.2,0.2-1.8c0.1-0.6,0.3-1.1,0.5-1.6c0.3-0.5,0.6-1,1-1.3c0.4-0.4,0.9-0.7,1.3-1c0.5-0.2,1-0.4,1.6-0.5
					c0.6-0.1,1.3-0.1,1.8-0.2l0.9,0h113.7l0.9,0c0.5,0,1.2,0,1.8,0.2c0.6,0.1,1.1,0.3,1.6,0.5c0.5,0.3,0.9,0.6,1.3,1
					c0.4,0.4,0.7,0.8,1,1.3c0.2,0.5,0.4,1,0.5,1.6c0.1,0.6,0.1,1.2,0.2,1.8c0,0.3,0,0.6,0,0.9c0,0.4,0,0.7,0,1v20.6c0,0.3,0,0.7,0,1
					c0,0.3,0,0.6,0,0.9c0,0.6-0.1,1.2-0.2,1.8c-0.1,0.6-0.3,1.1-0.5,1.6c-0.3,0.5-0.6,0.9-1,1.3c-0.4,0.4-0.9,0.7-1.3,1
					s-1,0.4-1.6,0.5c-0.6,0.1-1.3,0.1-1.8,0.2c-0.3,0-0.6,0-0.9,0h-1L8.2,38.5z"/>
			</g>
		</g>
	</g>
	<g>
		<g>
			<path class="st1" d="M48.3,26.7h-4.5l-1.1,3h-2l4.4-11.3H47l4.5,11.3h-2.1L48.3,26.7z M44.3,25.2h3.4L46.5,22
				c-0.2-0.4-0.3-0.9-0.5-1.5c-0.1,0.5-0.3,1-0.5,1.5L44.3,25.2z"/>
			<path class="st1" d="M52.4,23.4c0-0.6,0-1.3-0.1-2.1h1.8c0.1,0.3,0.1,0.7,0.1,1.1c0.7-0.8,1.6-1.2,2.6-1.2c0.6,0,1.1,0.1,1.6,0.4
				c0.5,0.3,0.9,0.7,1.2,1.3c0.3,0.6,0.4,1.4,0.4,2.3c0,1-0.2,1.8-0.5,2.5c-0.3,0.7-0.8,1.2-1.4,1.6c-0.6,0.4-1.3,0.5-2.1,0.5
				c-0.6,0-1.1-0.1-1.7-0.3v3.5l-1.9,0.2L52.4,23.4L52.4,23.4z M57.4,27.7c0.4-0.5,0.6-1.3,0.6-2.3c0-0.9-0.2-1.6-0.5-2
				c-0.3-0.4-0.8-0.6-1.3-0.6c-0.4,0-0.7,0.1-1,0.3c-0.3,0.2-0.6,0.4-0.9,0.7v4.5c0.2,0.1,0.4,0.2,0.7,0.2c0.3,0.1,0.5,0.1,0.8,0.1
				C56.5,28.5,57.1,28.2,57.4,27.7z"/>
			<path class="st1" d="M61.2,23.4c0-0.6,0-1.3-0.1-2.1H63c0.1,0.3,0.1,0.7,0.1,1.1c0.7-0.8,1.6-1.2,2.6-1.2c0.6,0,1.1,0.1,1.6,0.4
				c0.5,0.3,0.9,0.7,1.2,1.3c0.3,0.6,0.4,1.4,0.4,2.3c0,1-0.2,1.8-0.5,2.5c-0.3,0.7-0.8,1.2-1.4,1.6c-0.6,0.4-1.3,0.5-2.1,0.5
				c-0.6,0-1.1-0.1-1.7-0.3v3.5l-1.9,0.2L61.2,23.4L61.2,23.4z M66.3,27.7c0.4-0.5,0.6-1.3,0.6-2.3c0-0.9-0.2-1.6-0.5-2
				c-0.3-0.4-0.8-0.6-1.3-0.6c-0.4,0-0.7,0.1-1,0.3c-0.3,0.2-0.6,0.4-0.9,0.7v4.5c0.2,0.1,0.4,0.2,0.7,0.2c0.3,0.1,0.5,0.1,0.8,0.1
				C65.3,28.5,65.9,28.2,66.3,27.7z"/>
			<path class="st1" d="M72.4,29.2c-0.8-0.5-1.5-1.1-1.9-2c-0.4-0.9-0.7-1.9-0.7-3c0-1.3,0.3-2.3,0.8-3.2c0.5-0.9,1.2-1.5,2.1-2
				c0.9-0.4,1.9-0.7,3-0.7c0.6,0,1.3,0.1,1.9,0.2c0.6,0.1,1.1,0.3,1.6,0.6l-0.5,1.5c-1-0.5-2-0.7-2.9-0.7c-0.8,0-1.5,0.2-2.1,0.5
				c-0.6,0.3-1,0.8-1.4,1.5c-0.3,0.6-0.5,1.4-0.5,2.4c0,0.8,0.1,1.5,0.4,2.1c0.2,0.6,0.6,1.1,1.2,1.5c0.5,0.4,1.2,0.5,2.1,0.5
				c0.4,0,0.7,0,1.1-0.1s0.7-0.2,1-0.3v-2.3H75v-1.5h4.5V29c-0.6,0.3-1.3,0.5-2,0.7c-0.7,0.2-1.4,0.2-2.1,0.2
				C74.3,29.9,73.3,29.7,72.4,29.2z"/>
			<path class="st1" d="M86.4,29.8c-0.1-0.3-0.1-0.7-0.1-1.1c-0.3,0.4-0.7,0.7-1.2,0.9c-0.5,0.2-1,0.4-1.6,0.4
				c-0.5,0-0.9-0.1-1.3-0.3c-0.4-0.2-0.7-0.5-0.9-0.9c-0.2-0.4-0.3-0.8-0.3-1.4c0-0.8,0.3-1.5,0.9-1.9s1.6-0.7,2.9-0.7
				c0.5,0,1,0,1.5,0.1v-0.2c0-0.7-0.2-1.3-0.5-1.6s-0.8-0.5-1.4-0.5c-0.4,0-0.8,0.1-1.3,0.2c-0.5,0.1-0.9,0.3-1.2,0.4l-0.3-1.4
				c0.3-0.2,0.8-0.3,1.4-0.4c0.6-0.1,1.2-0.2,1.8-0.2c0.7,0,1.3,0.1,1.9,0.3c0.5,0.2,0.9,0.6,1.2,1.1c0.3,0.5,0.4,1.3,0.4,2.2v3.3
				c0,0.3,0,0.9,0.1,1.6L86.4,29.8L86.4,29.8L86.4,29.8z M85.3,28.2c0.4-0.2,0.7-0.4,1-0.7v-1.6c-0.5-0.1-0.9-0.1-1.3-0.1
				c-0.8,0-1.3,0.1-1.6,0.4c-0.3,0.3-0.5,0.6-0.5,1c0,0.4,0.1,0.7,0.3,0.9c0.2,0.2,0.5,0.3,0.9,0.3C84.5,28.5,84.9,28.4,85.3,28.2z"
				/>
			<path class="st1" d="M89.9,27.7v-9.9l1.9-0.2v9.7c0,0.4,0.1,0.6,0.2,0.8c0.1,0.2,0.3,0.2,0.6,0.2c0.1,0,0.3,0,0.5-0.1l0.2,1.4
				c-0.2,0.1-0.4,0.1-0.7,0.2c-0.3,0-0.5,0.1-0.7,0.1C90.5,29.9,89.9,29.2,89.9,27.7z"/>
			<path class="st1" d="M94.6,27.7v-9.9l1.9-0.2v9.7c0,0.4,0.1,0.6,0.2,0.8c0.1,0.2,0.3,0.2,0.6,0.2c0.1,0,0.3,0,0.5-0.1l0.2,1.4
				c-0.2,0.1-0.4,0.1-0.7,0.2c-0.3,0-0.5,0.1-0.7,0.1C95.3,29.9,94.6,29.2,94.6,27.7z"/>
			<path class="st1" d="M106,25.8h-5.5c0.1,1.8,0.9,2.6,2.5,2.6c0.4,0,0.8,0,1.2-0.1s0.8-0.2,1.2-0.4l0.4,1.3
				c-0.9,0.5-2,0.7-3.2,0.7c-0.9,0-1.6-0.2-2.3-0.5c-0.6-0.3-1.1-0.8-1.4-1.5c-0.3-0.6-0.5-1.4-0.5-2.3c0-0.9,0.2-1.7,0.5-2.4
				c0.3-0.7,0.8-1.2,1.4-1.5c0.6-0.4,1.3-0.5,2-0.5c0.8,0,1.5,0.2,2,0.6s0.9,0.9,1.2,1.5c0.3,0.6,0.4,1.3,0.4,2L106,25.8L106,25.8
				L106,25.8z M104.1,24.6c0-0.7-0.2-1.2-0.5-1.5s-0.7-0.5-1.2-0.5c-0.5,0-0.9,0.2-1.2,0.5c-0.3,0.3-0.5,0.8-0.6,1.5L104.1,24.6
				L104.1,24.6z"/>
			<path class="st1" d="M107.6,23.5c0-0.5,0-1.2-0.1-2.1h1.8c0,0.2,0.1,0.5,0.1,0.8c0,0.3,0,0.6,0.1,0.8c0.2-0.4,0.4-0.7,0.7-0.9
				c0.2-0.3,0.5-0.5,0.8-0.6c0.3-0.2,0.6-0.2,1-0.2c0.3,0,0.6,0,0.8,0.1l-0.2,1.7c-0.2-0.1-0.4-0.1-0.6-0.1c-0.5,0-0.8,0.1-1.2,0.3
				c-0.3,0.2-0.7,0.6-1.1,1.1v5.4h-1.9L107.6,23.5L107.6,23.5z"/>
			<path class="st1" d="M113.8,33.2c-0.3-0.1-0.5-0.1-0.7-0.2l0.3-1.4c0.1,0,0.3,0.1,0.5,0.1c0.2,0,0.4,0.1,0.6,0.1
				c0.9,0,1.5-0.6,1.9-1.6l0.1-0.3l-3.1-8.5h2.1l1.6,4.7c0.3,0.8,0.4,1.4,0.5,1.9c0.1-0.6,0.3-1.2,0.5-1.8l1.6-4.8h1.9l-3.1,8.5
				c-0.3,0.8-0.6,1.5-0.9,1.9c-0.3,0.5-0.7,0.9-1.2,1.1c-0.5,0.2-1,0.4-1.7,0.4C114.3,33.3,114,33.2,113.8,33.2z"/>
		</g>
		<g>
			<path class="st1" d="M40.7,7.5h3.5L44,8.4h-2.4V10h2.2v0.8h-2.2v1.8h2.5l-0.1,0.8h-3.4C40.7,13.4,40.7,7.5,40.7,7.5z"/>
			<path class="st1" d="M46.5,10.4l-1.8-2.9h1.2l1.2,2.1l1.3-2.1h1.1l-1.8,2.8l2,3h-1.2l-1.4-2.3l-1.4,2.3h-1.1L46.5,10.4z"/>
			<path class="st1" d="M50.4,7.5H52c0.7,0,1.3,0.2,1.7,0.5c0.4,0.3,0.6,0.7,0.6,1.3c0,0.4-0.1,0.7-0.3,1c-0.2,0.3-0.4,0.5-0.7,0.7
				c-0.3,0.2-0.7,0.2-1.1,0.2c-0.2,0-0.5,0-0.8-0.1v2.3h-1V7.5z M53,10.1c0.2-0.2,0.3-0.5,0.3-0.8c0-0.4-0.1-0.6-0.3-0.8
				c-0.2-0.2-0.5-0.2-1-0.2h-0.6v2.1c0.3,0,0.5,0.1,0.6,0.1C52.4,10.4,52.7,10.3,53,10.1z"/>
			<path class="st1" d="M55.3,7.5h1v5h2.4l-0.1,0.9h-3.4C55.3,13.4,55.3,7.5,55.3,7.5z"/>
			<path class="st1" d="M60.3,13.1c-0.4-0.2-0.8-0.6-1-1c-0.2-0.4-0.3-1-0.3-1.6c0-0.6,0.1-1.2,0.4-1.6c0.2-0.5,0.6-0.8,1-1.1
				c0.5-0.3,1-0.4,1.6-0.4c0.6,0,1.1,0.1,1.5,0.4c0.4,0.2,0.8,0.6,1,1s0.3,1,0.3,1.5c0,0.6-0.1,1.2-0.4,1.6c-0.2,0.5-0.6,0.8-1,1.1
				s-1,0.4-1.6,0.4C61.2,13.5,60.7,13.4,60.3,13.1z M62.9,12.4c0.3-0.2,0.5-0.5,0.6-0.8s0.2-0.7,0.2-1.1c0-0.4-0.1-0.8-0.2-1.1
				S63.3,8.7,63,8.5c-0.3-0.2-0.6-0.3-1.1-0.3c-0.4,0-0.8,0.1-1,0.3c-0.3,0.2-0.5,0.5-0.6,0.8C60.1,9.7,60,10,60,10.5
				c0,0.4,0.1,0.8,0.2,1.1s0.3,0.6,0.6,0.8c0.3,0.2,0.6,0.3,1,0.3C62.3,12.7,62.6,12.6,62.9,12.4z"/>
			<path class="st1" d="M66,7.5h1.8c0.7,0,1.2,0.1,1.5,0.4s0.5,0.6,0.5,1.1c0,0.3-0.1,0.6-0.2,0.8c-0.1,0.2-0.3,0.4-0.5,0.6
				c-0.2,0.2-0.4,0.3-0.6,0.3l1.8,2.6h-1.2l-1.5-2.3H67v2.3h-1L66,7.5L66,7.5z M67.6,10.3c0.2,0,0.5,0,0.7-0.1
				c0.2-0.1,0.3-0.2,0.4-0.4c0.1-0.2,0.2-0.4,0.2-0.6c0-0.3-0.1-0.5-0.3-0.6c-0.2-0.1-0.5-0.2-0.8-0.2H67v2H67.6z"/>
			<path class="st1" d="M71.3,7.5h3.5l-0.1,0.8h-2.4V10h2.2v0.8h-2.2v1.8h2.5l-0.1,0.8h-3.4L71.3,7.5L71.3,7.5z"/>
			<path class="st1" d="M78.5,7.5h1v5.9h-1V7.5z"/>
			<path class="st1" d="M82.2,8.4h-1.8l0.1-0.9H85l-0.1,0.9h-1.7v5h-1L82.2,8.4L82.2,8.4z"/>
			<path class="st1" d="M89.4,13.1c-0.4-0.2-0.8-0.6-1-1c-0.2-0.4-0.3-1-0.3-1.6c0-0.6,0.1-1.2,0.4-1.6c0.2-0.5,0.6-0.8,1-1.1
				c0.5-0.3,1-0.4,1.6-0.4c0.6,0,1.1,0.1,1.5,0.4c0.4,0.2,0.8,0.6,1,1c0.2,0.4,0.3,1,0.3,1.5c0,0.6-0.1,1.2-0.4,1.6
				c-0.2,0.5-0.6,0.8-1,1.1s-1,0.4-1.6,0.4C90.4,13.5,89.9,13.4,89.4,13.1z M92.1,12.4c0.3-0.2,0.5-0.5,0.6-0.8
				c0.1-0.3,0.2-0.7,0.2-1.1c0-0.4-0.1-0.8-0.2-1.1c-0.1-0.3-0.3-0.6-0.6-0.8c-0.3-0.2-0.6-0.3-1.1-0.3c-0.4,0-0.8,0.1-1,0.3
				c-0.3,0.2-0.5,0.5-0.6,0.8s-0.2,0.7-0.2,1.1c0,0.4,0.1,0.8,0.2,1.1c0.1,0.3,0.3,0.6,0.6,0.8c0.3,0.2,0.6,0.3,1,0.3
				C91.4,12.7,91.8,12.6,92.1,12.4z"/>
			<path class="st1" d="M95.1,7.5h1.2l2.9,4.6c0-0.4,0-0.8,0-1.2V7.5h0.9v5.9H99l-3-4.6c0,0.5,0,1,0,1.4v3.2h-0.9L95.1,7.5L95.1,7.5
				z"/>
		</g>
		<g>
			<g id="形状_1_拷贝_25_18_">
				<g>
					<path class="st2" d="M26.4,7.5H15.6c-5.1,0-7,1.9-7,7v10.8c0,5.1,1.9,7,7,7h10.8c5.1,0,7-1.9,7-7V14.5
						C33.4,9.3,31.5,7.5,26.4,7.5z"/>
				</g>
			</g>
			<path class="st1" d="M13.5,19.9h0.7v3.2h-0.7v-1.3H12v1.3h-0.7v-3.2H12v1.3h1.5V19.9z M17.2,21.7c0,0.5-0.3,0.8-0.7,0.8
				c-0.5,0-0.7-0.3-0.7-0.8v-1.8h-0.7v1.9c0,0.9,0.5,1.4,1.4,1.4c0.9,0,1.4-0.5,1.4-1.5v-1.8h-0.7C17.2,19.9,17.2,21.7,17.2,21.7z
				 M24.8,22.1l-0.7-2.2h-0.5l-0.7,2.2l-0.7-2.2h-0.7l1.1,3.2h0.5l0.7-2.1l0.7,2.1h0.6l1.1-3.2h-0.7L24.8,22.1z M27.4,21.7h1.2v-0.6
				h-1.2v-0.7h1.7v-0.6h-2.4v3.2h2.4v-0.6h-1.8C27.4,22.5,27.4,21.7,27.4,21.7z M30,23.1h0.6v-3.2H30C30,19.9,30,23.1,30,23.1z
				 M19.2,22.4l-0.3,0.7h-0.7l1.4-3.2h0.6l1.4,3.2H21l-0.3-0.7H19.2z M19.4,21.9h1l-0.5-1.2L19.4,21.9z"/>
			<path class="st1" d="M21,15.7c-2.3,0-4.1-1.9-4.1-4.1h0.6c0,2,1.6,3.5,3.5,3.5s3.5-1.6,3.5-3.5h0.6C25.1,13.9,23.3,15.7,21,15.7z
				"/>
		</g>
	</g>
</g>
</svg>
